<svg width="24" height="24" viewBox="0 0 24 24" fill="none" xmlns="http://www.w3.org/2000/svg">
<path d="M11.0456 11.3803C11.537 10.8091 11.8542 10.1089 11.9595 9.36283C12.0648 8.61675 11.9538 7.85612 11.6397 7.17123C11.3257 6.48633 10.8217 5.90593 10.1876 5.49891C9.55352 5.0919 8.81597 4.87536 8.0625 4.875H3C2.70163 4.875 2.41548 4.99353 2.2045 5.2045C1.99353 5.41548 1.875 5.70163 1.875 6V18C1.875 18.2984 1.99353 18.5845 2.2045 18.7955C2.41548 19.0065 2.70163 19.125 3 19.125H8.4375C9.33984 19.1244 10.2193 18.8407 10.9519 18.314C11.6846 17.7873 12.2335 17.044 12.5215 16.1888C12.8095 15.3337 12.822 14.4097 12.5572 13.5471C12.2925 12.6845 11.7638 11.9267 11.0456 11.3803ZM4.125 7.125H8.0625C8.51005 7.125 8.93927 7.30279 9.25574 7.61926C9.57221 7.93573 9.75 8.36495 9.75 8.8125C9.75 9.26005 9.57221 9.68927 9.25574 10.0057C8.93927 10.3222 8.51005 10.5 8.0625 10.5H4.125V7.125ZM8.4375 16.875H4.125V12.75H8.4375C8.98451 12.75 9.50911 12.9673 9.89591 13.3541C10.2827 13.7409 10.5 14.2655 10.5 14.8125C10.5 15.3595 10.2827 15.8841 9.89591 16.2709C9.50911 16.6577 8.98451 16.875 8.4375 16.875ZM14.625 7.125C14.625 6.82663 14.7435 6.54048 14.9545 6.3295C15.1655 6.11853 15.4516 6 15.75 6H21.75C22.0484 6 22.3345 6.11853 22.5455 6.3295C22.7565 6.54048 22.875 6.82663 22.875 7.125C22.875 7.42337 22.7565 7.70952 22.5455 7.9205C22.3345 8.13147 22.0484 8.25 21.75 8.25H15.75C15.4516 8.25 15.1655 8.13147 14.9545 7.9205C14.7435 7.70952 14.625 7.42337 14.625 7.125ZM18.75 9.375C17.4571 9.375 16.2171 9.88861 15.3029 10.8029C14.3886 11.7171 13.875 12.9571 13.875 14.25C13.875 15.5429 14.3886 16.7829 15.3029 17.6971C16.2171 18.6114 17.4571 19.125 18.75 19.125C19.4874 19.127 20.2154 18.9599 20.8781 18.6366C21.0142 18.574 21.1364 18.4849 21.2376 18.3744C21.3387 18.264 21.4168 18.1345 21.4673 17.9935C21.5177 17.8525 21.5395 17.7028 21.5314 17.5533C21.5232 17.4037 21.4853 17.2573 21.4198 17.1226C21.3544 16.988 21.2627 16.8677 21.1501 16.7689C21.0375 16.6701 20.9064 16.5948 20.7643 16.5474C20.6223 16.5 20.4722 16.4814 20.3228 16.4927C20.1735 16.5041 20.0279 16.5451 19.8947 16.6134C19.5381 16.7868 19.1465 16.8763 18.75 16.875C18.2533 16.8745 17.767 16.7333 17.3472 16.4679C16.9275 16.2024 16.5915 15.8235 16.3781 15.375H22.5C22.7984 15.375 23.0845 15.2565 23.2955 15.0455C23.5065 14.8345 23.625 14.5484 23.625 14.25C23.6235 12.9575 23.1094 11.7184 22.1955 10.8045C21.2816 9.89058 20.0425 9.37649 18.75 9.375ZM16.3781 13.125C16.591 12.6761 16.9269 12.2968 17.3467 12.0312C17.7666 11.7656 18.2532 11.6246 18.75 11.6246C19.2468 11.6246 19.7334 11.7656 20.1533 12.0312C20.5731 12.2968 20.909 12.6761 21.1219 13.125H16.3781Z" fill="#ECE7C1"/>
</svg>
